<?xml version="1.0" standalone="no"?><!DOCTYPE svg PUBLIC "-//W3C//DTD SVG 1.1//EN" "http://www.w3.org/Graphics/SVG/1.1/DTD/svg11.dtd"><svg t="1667736902008" class="icon" viewBox="0 0 1024 1024" version="1.1" xmlns="http://www.w3.org/2000/svg" p-id="2539" xmlns:xlink="http://www.w3.org/1999/xlink" width="200" height="200"><path d="M535.201 293.793c66.846 66.721 132.615 132.387 200.714 200.343-2.201 1.321-5.599 2.567-7.937 4.892-99.582 98.527-199.271 196.925-298.307 295.998-12.935 12.935-26.857 21.173-44.302 26.122-67.953 19.289-135.625 39.564-203.437 59.382-15.119 4.416-26.947 0.437-34.567-11.302-5.034-7.742-5.017-16.209-2.571-24.605 21.65-74.13 43.331-148.245 65.332-222.254 1.603-5.351 5.017-10.772 8.993-14.731 103.26-102.432 206.734-204.653 310.116-306.947 2.233-2.219 4.135-4.785 5.966-6.898zM258.951 654.349c-1.039 3.097-1.85 5.315-2.516 7.587-9.155 31.044-17.181 62.48-27.846 92.998-5.561 15.909-4.029 27.104 9.858 36.555 2.567 1.744 4.786 4.205 6.703 6.686 3.028 3.962 6.406 4.069 10.895 2.711 25.38-7.673 50.847-15.098 76.298-22.578 12.727-3.75 25.466-7.465 39.092-11.44-2.13-2.431-3.292-4.347-4.963-5.545-10.474-7.585-15.119-17.653-14.167-30.608 0.368-4.823-0.281-9.732-0.564-14.606-0.827-13.517-1.689-27.036-2.571-40.871-18.621-1.531-36.307-3.377-54.030-4.291-12.939-0.67-25.151-1.957-33.054-14.048-0.495-0.754-1.461-1.212-3.131-2.549z" p-id="2540"></path><path d="M833.788 381.511c-63.202-63.113-126.283-126.122-190.048-189.799 15.33-13.94 27.687-32.19 47.839-41.904 24.287-11.687 54.471-6.16 76.013 15.012 31.278 30.764 62.43 61.689 93.054 93.122 28.316 29.038 27.841 68.254-0.352 97.292-8.82 9.066-17.953 17.813-26.506 26.277z" p-id="2541"></path><path d="M807.986 418.86c-14.202 13.308-28.953 27.104-43.35 40.586-66.315-66.315-132.21-132.194-198.457-198.441 14.521-13.605 29.25-27.421 43.33-40.624 66.212 66.196 132.052 132.039 198.476 198.478z" p-id="2542"></path></svg>